# xmcd
# 
# Track frame offsets:
#     182
#     20852
#     36397
#     55012
#     67467
#     89342
#     113785
#     135852
#     154352
#     187687
#     206367
#     229967
#     246082
#     265922
#     286562
#     309122
# 
# Disc length: 4308
# 
# Revision: 6
# Processed by: cddbd v1.5.2PL0 Copyright (c) Steve Scherf et al.
# Submitted via: BonkEnc v1.0
# 
DISCID=da10d210
DTITLE=Various Artist - The Brothers 
DYEAR=2003
DGENRE=Soundtrack
TTITLE0=Eric Benet - Love Don't Love Me
TTITLE1=Jermaine Dupri And R.O.C. (Feat. Lil' Mo) - Lay It Down
TTITLE2=RL - Good Love
TTITLE3=Jaheim (Feat. Castro) - Let It Go
TTITLE4=Eddie Levert Sr. (Feat. Gerald Levert) - Two Of A Kind
TTITLE5=Snoop Dogg - Hi 2 U
TTITLE6=DL - Josephine
TTITLE7=Something For The People (Feat. Fuzzy) - 2night
TTITLE8=Maze (Feat. Frankie Beverly) - Teach Each Other
TTITLE9=Lil' Johnny - Wheel Of Fortune
TTITLE10=Cassie - I'm Through
TTITLE11=Duganz - I Put It Down
TTITLE12=AB - Happy
TTITLE13=Dave Hollister - Forever
TTITLE14=No Question - Remember Us
TTITLE15=Marcus Miller - The Love Theme
EXTD=
EXTT0=
EXTT1=
EXTT2=
EXTT3=
EXTT4=
EXTT5=
EXTT6=
EXTT7=
EXTT8=
EXTT9=
EXTT10=
EXTT11=
EXTT12=
EXTT13=
EXTT14=
EXTT15=
PLAYORDER=
